<?xml version="1.0" standalone="no"?><svg xmlns="http://www.w3.org/2000/svg" viewBox="0 0 1440 320"><path fill="#213970" fill-opacity="1" d="M0,288L0,288L36.9,288L36.9,160L73.8,160L73.8,96L110.8,96L110.8,192L147.7,192L147.7,224L184.6,224L184.6,64L221.5,64L221.5,128L258.5,128L258.5,160L295.4,160L295.4,128L332.3,128L332.3,128L369.2,128L369.2,256L406.2,256L406.2,288L443.1,288L443.1,192L480,192L480,0L516.9,0L516.9,160L553.8,160L553.8,64L590.8,64L590.8,32L627.7,32L627.7,128L664.6,128L664.6,256L701.5,256L701.5,288L738.5,288L738.5,192L775.4,192L775.4,160L812.3,160L812.3,288L849.2,288L849.2,0L886.2,0L886.2,288L923.1,288L923.1,160L960,160L960,128L996.9,128L996.9,256L1033.8,256L1033.8,32L1070.8,32L1070.8,64L1107.7,64L1107.7,96L1144.6,96L1144.6,64L1181.5,64L1181.5,64L1218.5,64L1218.5,256L1255.4,256L1255.4,160L1292.3,160L1292.3,224L1329.2,224L1329.2,0L1366.2,0L1366.2,224L1403.1,224L1403.1,224L1440,224L1440,0L1403.1,0L1403.1,0L1366.2,0L1366.2,0L1329.2,0L1329.2,0L1292.3,0L1292.3,0L1255.4,0L1255.4,0L1218.5,0L1218.5,0L1181.5,0L1181.5,0L1144.6,0L1144.6,0L1107.7,0L1107.7,0L1070.8,0L1070.8,0L1033.8,0L1033.8,0L996.9,0L996.9,0L960,0L960,0L923.1,0L923.1,0L886.2,0L886.2,0L849.2,0L849.2,0L812.3,0L812.3,0L775.4,0L775.4,0L738.5,0L738.5,0L701.5,0L701.5,0L664.6,0L664.6,0L627.7,0L627.7,0L590.8,0L590.8,0L553.8,0L553.8,0L516.9,0L516.9,0L480,0L480,0L443.1,0L443.1,0L406.2,0L406.2,0L369.2,0L369.2,0L332.3,0L332.3,0L295.4,0L295.4,0L258.5,0L258.5,0L221.5,0L221.5,0L184.6,0L184.6,0L147.7,0L147.7,0L110.8,0L110.8,0L73.8,0L73.8,0L36.9,0L36.9,0L0,0L0,0Z"></path></svg>